<svg width="100" height="24" viewBox="0 0 100 24" fill="none" xmlns="http://www.w3.org/2000/svg">
<path fill-rule="evenodd" clip-rule="evenodd" d="M9.37993 23.6718C13.0298 23.665 16.8624 23.6892 20.4911 23.5555C24.5673 23.4053 26.7963 23.5781 30.1133 22.2357C32.5475 21.2506 34.4715 19.7444 35.773 17.8136C37.3715 15.4423 37.3789 13.1739 37.1695 10.0897C36.9795 7.28926 35.8146 5.313 33.9555 3.79942C28.4602 -0.674542 23.4148 0.192383 15.9252 0.230414C12.7823 0.246372 13.6852 0.083661 12.0325 1.55359C11.5554 1.97802 9.80018 3.5364 9.58685 3.90572C14.4846 4.12046 20.0103 3.61923 24.8289 4.00116C34.3929 4.75917 34.6098 15.5437 28.3951 18.8024C26.6629 19.7107 24.3045 19.6976 21.9088 19.7532C19.4203 19.811 16.9327 19.811 14.3666 19.811L14.3555 9.61751L9.35742 9.61208L9.37993 23.6718Z" fill="white"/>
<path fill-rule="evenodd" clip-rule="evenodd" d="M70.6719 0.13858C71.0192 1.064 73.5105 5.03244 74.2113 6.09501C76.4009 9.41537 79.2875 14.2796 81.4561 17.8106C82.0718 18.8132 82.6738 19.7433 83.2919 20.7474C83.6976 21.4064 84.5266 23.1411 85.1488 23.5299C85.8669 23.3415 86.8215 21.4282 87.1989 20.7965C87.8981 19.626 87.6999 19.9502 86.4135 17.7459C84.2346 14.0123 81.4584 9.74896 79.1108 5.96443L75.5381 0.136719L70.6719 0.13858Z" fill="white"/>
<path fill-rule="evenodd" clip-rule="evenodd" d="M42.1582 13.7208L65.6689 13.7094L65.64 9.87695L42.1553 9.91728L42.1582 13.7208Z" fill="white"/>
<path fill-rule="evenodd" clip-rule="evenodd" d="M42.2773 0.150336C42.7153 0.651541 44.3951 1.63045 45.0999 2.15602C45.7012 2.60448 47.4232 3.97891 48.2393 3.97895C53.4828 3.97895 60.6696 4.10397 65.6699 3.9665L65.6401 0.141113L42.2773 0.150336Z" fill="white"/>
<path fill-rule="evenodd" clip-rule="evenodd" d="M48.2391 19.7202C47.5351 19.7202 47.033 20.2876 46.5496 20.5915L42.2725 23.5479L65.6503 23.5541L65.6459 19.7297C60.2951 19.6373 53.7225 19.7202 48.2391 19.7202Z" fill="white"/>
<path fill-rule="evenodd" clip-rule="evenodd" d="M89.1885 17.6453C89.9427 16.9206 91.316 14.3095 91.9877 13.2806C93.0699 11.623 99.6341 1.13712 100 0.137695L95.0368 0.138969C93.7596 2.76946 88.7872 10.1349 86.8972 13.3324C86.5282 13.9567 86.5841 13.9972 86.9909 14.5537C87.5795 15.3587 88.681 17.2784 89.1885 17.6453Z" fill="white"/>
<path fill-rule="evenodd" clip-rule="evenodd" d="M2.09206 10.9327C-0.0307045 12.9546 0.00980486 12.4195 0.0197544 14.1442C0.0374424 17.2 -0.0536436 20.6749 0.0518925 23.6811L4.90525 23.632L4.87927 8.3584L2.09206 10.9327Z" fill="white"/>
<path fill-rule="evenodd" clip-rule="evenodd" d="M1.81389 0.398239C-1.09856 0.995437 -0.160698 4.69139 3.06362 4.0311C6.01626 3.42642 4.9078 -0.236184 1.81389 0.398239Z" fill="white"/>
</svg>
